<?xml version="1.0" standalone="no"?>
<!DOCTYPE svg PUBLIC "-//W3C//DTD SVG 20010904//EN"
 "http://www.w3.org/TR/2001/REC-SVG-20010904/DTD/svg10.dtd">
<svg version="1.0" xmlns="http://www.w3.org/2000/svg"
 width="1024.000000pt" height="1024.000000pt" viewBox="0 0 1024.000000 1024.000000"
 preserveAspectRatio="xMidYMid meet">
<metadata>
Created by potrace 1.14, written by Peter Selinger 2001-2017
</metadata>
<g transform="translate(0.000000,1024.000000) scale(0.100000,-0.100000)"
fill="#000000" stroke="none">
<path d="M3410 9385 l0 -125 -365 0 -365 0 0 -240 0 -240 -120 0 -120 0 0
-245 0 -245 -125 0 -125 0 0 -120 0 -120 -120 0 -120 0 0 -125 0 -125 -120 0
-120 0 0 -120 0 -120 -125 0 -125 0 0 -245 0 -245 -120 0 -120 0 0 -120 0
-120 -120 0 -120 0 0 -125 0 -125 -125 0 -125 0 0 -240 0 -240 -120 0 -120 0
0 -245 0 -245 -125 0 -125 0 0 -245 0 -245 -120 0 -120 0 0 -610 0 -610 120 0
120 0 0 -245 0 -245 125 0 125 0 0 -120 0 -120 120 0 120 0 0 -245 0 -245 125
0 125 0 0 -120 0 -120 120 0 120 0 0 -125 0 -125 120 0 120 0 0 -120 0 -120
125 0 125 0 0 -120 0 -120 240 0 240 0 0 -125 0 -125 245 0 245 0 0 -120 0
-120 245 0 245 0 0 -120 0 -120 365 0 365 0 0 -125 0 -125 1220 0 1220 0 0
125 0 125 365 0 365 0 0 120 0 120 365 0 365 0 0 120 0 120 245 0 245 0 0 125
0 125 245 0 245 0 0 120 0 120 120 0 120 0 0 120 0 120 120 0 120 0 0 125 0
125 125 0 125 0 0 120 0 120 120 0 120 0 0 245 0 245 125 0 125 0 0 365 0 365
120 0 120 0 0 1100 0 1100 -120 0 -120 0 0 240 0 240 -125 0 -125 0 0 245 0
245 -120 0 -120 0 0 245 0 245 -125 0 -125 0 0 120 0 120 -120 0 -120 0 0 125
0 125 -120 0 -120 0 0 120 0 120 -125 0 -125 0 0 120 0 120 -240 0 -240 0 0
125 0 125 -370 0 -370 0 0 120 0 120 -120 0 -120 0 0 120 0 120 -245 0 -245 0
0 125 0 125 -1585 0 -1585 0 0 -125z m2930 -485 l0 -120 245 0 245 0 0 -125 0
-125 120 0 120 0 0 -120 0 -120 365 0 365 0 0 -120 0 -120 245 0 245 0 0 -125
0 -125 120 0 120 0 0 -120 0 -120 125 0 125 0 0 -125 0 -125 120 0 120 0 0
-240 0 -240 120 0 120 0 0 -245 0 -245 125 0 125 0 0 -245 0 -245 120 0 120 0
0 -855 0 -855 -120 0 -120 0 0 -365 0 -365 -125 0 -125 0 0 -240 0 -240 -120
0 -120 0 0 -125 0 -125 -120 0 -120 0 0 -120 0 -120 -125 0 -125 0 0 -125 0
-125 -240 0 -240 0 0 -120 0 -120 -245 0 -245 0 0 -120 0 -120 -365 0 -365 0
0 -125 0 -125 -365 0 -365 0 0 -120 0 -120 -980 0 -980 0 0 120 0 120 -365 0
-365 0 0 125 0 125 -240 0 -240 0 0 120 0 120 -245 0 -245 0 0 120 0 120 -245
0 -245 0 0 125 0 125 -120 0 -120 0 0 120 0 120 -125 0 -125 0 0 125 0 125
-120 0 -120 0 0 240 0 240 -120 0 -120 0 0 125 0 125 -125 0 -125 0 0 240 0
240 -120 0 -120 0 0 370 0 370 120 0 120 0 0 240 0 240 125 0 125 0 0 245 0
245 120 0 120 0 0 245 0 245 120 0 120 0 0 120 0 120 125 0 125 0 0 125 0 125
120 0 120 0 0 240 0 240 120 0 120 0 0 125 0 125 125 0 125 0 0 120 0 120 120
0 120 0 0 125 0 125 245 0 245 0 0 120 0 120 120 0 120 0 0 120 0 120 125 0
125 0 0 245 0 245 1340 0 1340 0 0 -120z"/>
<path d="M8290 5975 l0 -125 -120 0 -120 0 0 -245 0 -245 485 0 485 0 0 125 0
125 120 0 120 0 0 245 0 245 -485 0 -485 0 0 -125z"/>
<path d="M1710 5240 l0 -120 -245 0 -245 0 0 -245 0 -245 120 0 120 0 0 -120
0 -120 245 0 245 0 0 120 0 120 245 0 245 0 0 245 0 245 -125 0 -125 0 0 120
0 120 -240 0 -240 0 0 -120z"/>
<path d="M5360 4265 l0 -125 -365 0 -365 0 0 -120 0 -120 -245 0 -245 0 0
-120 0 -120 -240 0 -240 0 0 -490 0 -490 120 0 120 0 0 -120 0 -120 610 0 610
0 0 -125 0 -125 490 0 490 0 0 125 0 125 485 0 485 0 0 120 0 120 365 0 365 0
0 125 0 125 125 0 125 0 0 240 0 240 120 0 120 0 0 245 0 245 -120 0 -120 0 0
120 0 120 -125 0 -125 0 0 125 0 125 -1220 0 -1220 0 0 -125z m2200 -730 l0
-365 -365 0 -365 0 0 -120 0 -120 -610 0 -610 0 0 -125 0 -125 -125 0 -125 0
0 125 0 125 -610 0 -610 0 0 120 0 120 245 0 245 0 0 120 0 120 125 0 125 0 0
125 0 125 365 0 365 0 0 120 0 120 975 0 975 0 0 -365z"/>
</g>
</svg>
